<?xml version="1.0" encoding="UTF-8"?>
<!DOCTYPE svg PUBLIC "-//W3C//DTD SVG 1.1//EN" "http://www.w3.org/Graphics/SVG/1.1/DTD/svg11.dtd">
<!-- Creator: CorelDRAW 2017 -->
<svg xmlns="http://www.w3.org/2000/svg" xml:space="preserve" width="100%" height="100%" version="1.1" style="shape-rendering:geometricPrecision; text-rendering:geometricPrecision; image-rendering:optimizeQuality; fill-rule:evenodd; clip-rule:evenodd"
viewBox="0 0 6927 1364"
 xmlns:xlink="http://www.w3.org/1999/xlink">
 <defs>
  <style type="text/css">
   <![CDATA[
    .fil2 {fill:#FEFEFE}
    .fil0 {fill:#C92223}
    .fil1 {fill:#FEFEFE;fill-rule:nonzero}
   ]]>
  </style>
 </defs>
 <g id="Слой_x0020_1">
  <metadata id="CorelCorpID_0Corel-Layer"/>
  <g id="_1055966436320">
   <path class="fil0" d="M2246 935l398 0c37,0 68,31 68,68l0 294c0,37 -31,68 -68,68l-398 0c-37,0 -68,-31 -68,-68l0 -294c0,-37 31,-68 68,-68zm345 323l-48 0 -28 -47 -140 0 -27 47 -50 0 121 -216 48 0 123 216zm-98 -86l-48 -88 -48 88 96 0z"/>
   <path class="fil0" d="M2925 935l398 0c37,0 68,31 68,68l0 294c0,37 -31,68 -68,68l-398 0c-37,0 -68,-31 -68,-68l0 -294c0,-37 31,-68 68,-68zm321 268c0,23 -4,38 -11,45 -8,7 -23,11 -46,11l-128 0c-23,0 -39,-4 -46,-11 -8,-7 -11,-22 -11,-45l0 -161 50 0 0 171 143 0 0 -171 50 0 0 161z"/>
   <path class="fil0" d="M3604 935l398 0c37,0 68,31 68,68l0 294c0,37 -31,68 -68,68l-398 0c-37,0 -68,-31 -68,-68l0 -294c0,-37 31,-68 68,-68zm319 146l-95 0 0 176 -50 0 0 -176 -94 0 0 -38 240 0 0 38z"/>
   <path class="fil0" d="M4283 935l398 0c37,0 68,31 68,68l0 294c0,37 -31,68 -68,68l-398 0c-37,0 -68,-31 -68,-68l0 -294c0,-37 31,-68 68,-68zm331 271c0,20 -4,34 -11,41 -8,7 -22,10 -42,10l-158 0c-20,0 -34,-3 -42,-10 -8,-7 -11,-20 -11,-41l0 -113c0,-20 4,-34 11,-41 8,-7 22,-10 42,-10l158 0c20,0 34,3 42,10 8,7 11,20 11,41l0 113zm-50 10l0 -135 -165 0 0 135 165 0z"/>
   <path class="fil1" d="M692 286c0,78 -49,116 -146,116l-397 0 0 251 -149 0 0 -652 546 0c98,0 146,38 146,114l0 171zm-141 -51l0 -69c0,-35 -14,-52 -43,-52l-359 0 0 174 359 0c29,0 43,-17 43,-52zm2127 418l-191 0 -242 -246 -140 0 0 246 -149 0 0 -651 558 0c98,0 146,38 146,114l0 178c0,55 -25,93 -76,114l-157 0 249 246zm-163 -409l0 -78c0,-34 -14,-51 -43,-51l-366 0 0 182 366 0c29,0 43,-17 43,-52zm2154 255c0,61 -12,102 -35,123 -23,21 -66,31 -127,31l-478 0c-62,0 -104,-10 -127,-31 -23,-21 -35,-62 -35,-123l0 -342c0,-61 12,-102 35,-123 23,-21 66,-31 127,-31l478 0c62,0 104,10 127,31 23,21 35,62 35,123l0 342zm-152 30l0 -409 -499 0 0 409 499 0zm1232 124l-191 0 -242 -246 -140 0 0 246 -149 0 0 -651 558 0c98,0 146,38 146,114l0 178c0,55 -25,93 -76,114l-157 0 249 246zm-163 -409l0 -78c0,-34 -14,-51 -43,-51l-366 0 0 182 366 0c29,0 43,-17 43,-52zm1342 409l-136 0 0 -473 -291 233 -294 -233 0 473 -132 0 0 -653 136 0 290 242 294 -242 133 0 0 653z"/>
   <path class="fil2" d="M2991 3l545 0c31,0 57,26 57,57l0 0c0,31 -26,57 -57,57l-545 0c-31,0 -57,-26 -57,-57l0 0c0,-31 26,-57 57,-57z"/>
   <path class="fil2" d="M2991 3l545 0c31,0 57,26 57,57l0 0c0,31 -26,57 -57,57l-545 0c-31,0 -57,-26 -57,-57l0 0c0,-31 26,-57 57,-57z"/>
   <path class="fil2" d="M1029 269l591 0c32,0 58,26 58,58l0 0c0,32 -26,58 -58,58l-591 0c-32,0 -58,-26 -58,-58l0 0c0,-32 26,-58 58,-58z"/>
   <path class="fil2" d="M1029 3l591 0c32,0 58,26 58,58l0 0c0,32 -26,58 -58,58l-591 0c-32,0 -58,-26 -58,-58l0 0c0,-32 26,-58 58,-58z"/>
   <path class="fil2" d="M1029 536l591 0c32,0 58,26 58,58l0 0c0,32 -26,58 -58,58l-591 0c-32,0 -58,-26 -58,-58l0 0c0,-32 26,-58 58,-58z"/>
   <path class="fil2" d="M2993 3l542 0c32,0 58,26 58,58l0 0c0,32 -26,58 -58,58l-542 0c-32,0 -58,-26 -58,-58l0 0c0,-32 26,-58 58,-58z"/>
   <path class="fil2" d="M2991 270l295 0c32,0 58,26 58,58l0 0c0,32 -26,58 -58,58l-295 0c-32,0 -58,-26 -58,-58l0 0c0,-32 26,-58 58,-58z"/>
   <path class="fil2" d="M2993 536l30 0c32,0 58,26 58,58l0 0c0,32 -26,58 -58,58l-30 0c-32,0 -58,-26 -58,-58l0 0c0,-32 26,-58 58,-58z"/>
  </g>
 </g>
</svg>
